<?xml version="1.0" encoding="UTF-8"?>
<svg id="Layer_2" data-name="Layer 2" xmlns="http://www.w3.org/2000/svg" viewBox="0 0 119.56 43.69">
  <defs>
    <style>
      .cls-1 {
        fill: #4F46E5;
      }

      .cls-2 {
        fill: #4F46E5;
      }

      .cls-3 {
        fill: #4F46E5;
      }

      .cls-4 {
        fill: #4F46E5;
      }

      .cls-5 {
        fill: #4F46E5;
      }
    </style>
  </defs>
  <g id="Layer_1-2" data-name="Layer 1">
    <g>
      <path class="cls-3" d="M94.83,43.69c-1.59-.88-2.68-2.04-2.31-4.04,.03-.15-.08-.39-.2-.5-1.4-1.32-2.81-2.63-4.28-3.99-3.33,2-6.89,2.62-10.6,1.14-2.85-1.14-4.84-3.19-5.97-6.06-2.01-5.1,.57-12.43,8.64-14.07,0-1.52,.03-3.05-.03-4.58-.01-.3-.33-.66-.6-.87-1.5-1.13-2.07-2.69-1.53-4.35,.52-1.61,1.97-2.67,3.66-2.68,1.67,0,3.17,1.06,3.71,2.63,.57,1.67,0,3.27-1.44,4.39-.31,.24-.6,.71-.62,1.09-.07,1.41-.03,2.83-.03,4.29,1.12,.39,2.22,.78,3.34,1.13,.22,.07,.58,.03,.74-.11,1.23-1.08,2.69-1.21,4.23-1.1,.92,.06,1.86,.01,3.03,.01-.5-.73-.86-1.26-1.29-1.9-.2,.48-.35,.83-.52,1.24-.54-.03-1.08-.06-1.6-.08-.51-2.71,2.44-4.94,4.44-4.98,1.11-.02,2.22,.05,3.32,.04,.46,0,.92-.12,1.59-.21-.32-.53-.55-.91-.65-1.07-.81,.28-1.5,.52-2.27,.78-.05-1.77,1.18-3.76,2.55-4.32,.25-.1,.67-.09,.86,.06,.24,.19,.46,.59,.44,.88-.11,1.37-.14,1.37,.66,2.36,.14-.11,.28-.31,.42-.31,.45-.03,.91,.02,1.36,.04-.05,.46,.08,1.04-.16,1.35-1.43,1.81-3.36,2.35-5.61,2.06-.67-.09-1.37-.01-2.31-.01,.46,.71,.77,1.18,1.14,1.73,.28-.38,.44-.81,.75-.97,.3-.16,.75-.03,1.12-.03,.31,2.68-1.67,4.94-4.34,5.02-1.11,.03-2.22-.08-3.32-.07-.49,0-.98,.14-1.59,.24,.32,.51,.55,.86,.65,1.01,.89-.25,1.66-.46,2.75-.77-.24,.89-.21,1.64-.55,1.87-1.63,1.11-.93,2.38-.29,3.54,1.04,1.88,.79,3.83,.26,5.69-.4,1.39-1.32,2.64-2.06,4.05,1.32,1.23,2.69,2.52,4.08,3.79,.14,.13,.43,.17,.64,.16,2.17-.12,3.49,.65,3.97,2.33,.46,1.63-.28,3.01-2.13,3.97-.05,.03-.08,.12-.11,.18h-1.9Zm-20.23-17.04c0,3.89,3.09,7.01,6.96,7.05,3.87,.04,7.07-3.15,7.08-7.08,.01-3.81-3.21-7.01-7.05-6.98-3.89,.02-7,3.15-7,7.01Zm19.61-13.61c-.12,0-.24,.01-.36,.02-.02,.29-.14,.62-.03,.85,.25,.52,.6,1,.96,1.46,.12,.16,.41,.19,.62,.28,.01-.26,.12-.57,.02-.76-.36-.64-.8-1.23-1.2-1.83Zm2.01,2.08c.79-1.26-.34-1.74-.64-2.43-.09-.21-.53-.27-.81-.4-.06,.11-.12,.22-.18,.33,.49,.75,.98,1.51,1.63,2.5Zm4.34-7.48c-.97,.87-.03,1.26,.19,1.77,.05,.11,.36,.11,.56,.16,.05-.2,.19-.45,.12-.59-.22-.43-.53-.83-.87-1.34Z"/>
      <path class="cls-5" d="M102.14,16.74c2.98,0,5.83-.12,8.67,.03,3.26,.17,5.36,1.72,6,4.12,.77,2.85-.26,5.18-3.26,7.2,1.97,2.89,3.95,5.78,6.01,8.79-1.99,0-3.91,.03-5.83-.03-.28,0-.64-.39-.81-.69-1.14-1.89-2.29-3.77-3.34-5.72-.45-.84-.99-1.13-1.99-.84v7.2h-5.44V16.74Zm5.45,8.71c1.37-.03,2.84,.19,3.53-1.18,.35-.7,.39-1.87,.03-2.54-.74-1.36-2.23-.98-3.56-1.03v4.75Z"/>
      <path class="cls-2" d="M34.1,36.84c-.28-1.06-.49-2.07-.84-3.02-.12-.32-.59-.71-.91-.72-1.94-.07-3.88-.03-5.91-.03-.36,1.25-.71,2.49-1.08,3.77h-5.94c.89-2.71,1.75-5.35,2.61-8,1.23-3.78,2.47-7.55,3.65-11.34,.24-.76,.57-1.05,1.4-1.01,1.74,.08,3.48,.06,5.23,0,.75-.02,1.09,.18,1.33,.94,1.75,5.43,3.54,10.84,5.36,16.25,.35,1.04,.84,2.04,1.32,3.16h-6.23Zm-4.27-16.5h-.19c-.68,2.73-1.37,5.47-2.07,8.25h4.36c-.72-2.81-1.41-5.53-2.11-8.25Z"/>
      <path class="cls-5" d="M46.49,16.62c1.94,0,3.68,.03,5.41-.02,.73-.02,.8,.41,.94,.93,1.15,4.36,2.32,8.72,3.55,13.31,.15-.52,.26-.89,.35-1.26,1.06-4.07,2.1-8.14,3.21-12.2,.09-.31,.61-.71,.94-.72,1.77-.07,3.55-.03,5.6-.03-.39,.88-.79,1.6-1.04,2.36-1.86,5.59-3.71,11.19-5.5,16.8-.28,.88-.67,1.15-1.56,1.11-1.73-.07-3.47-.02-5.25-.02-2.21-6.74-4.39-13.4-6.64-20.26Z"/>
      <path class="cls-1" d="M.02,36.83c0-6.71-.01-13.41-.02-20.12,3.91,0,7.83,0,11.81,0v4.21H5.31v3.96h5.94v4.32H5.28v7.63H.02Z"/>
      <path class="cls-4" d="M105.78,7.47c-2,.03-3.8-1.73-3.81-3.73C101.96,1.7,103.68,0,105.75,0c2.01,0,3.69,1.64,3.76,3.65,.07,1.95-1.72,3.79-3.72,3.82Z"/>
    </g>
  </g>
</svg>